#!OML:ASF G:\JayActor3\Patient Classification 1\Patient 1\Session 5\male.ASF
:FULLY-SPECIFIED
:DEGREES
607
root 8.3784 17.2124 -6.43736 866.912 -86.1884 -851.339
lowerback 19.7294 -0.258792 2.75534
upperback 6.7578 -0.369427 -1.82748
thorax -3.74929 -0.334197 -3.42241
lowerneck 6.49668 0.466429 2.72162
upperneck -19.4318 1.16374 2.60458
head -7.00847 -0.0242206 0.314316
rclavicle -9.14409e-015 0
rhumerus -30.7985 -6.01046 -88.4835
rradius 25.9748
rwrist 7.17632
rhand -22.236 -9.72885
rfingers 7.12502
rthumb 4.18092 -39.6676
lclavicle -9.14409e-015 0
lhumerus -36.1501 6.84499 79.6865
lradius 27.5847
lwrist 20.0501
lhand -21.5694 13.5224
lfingers 7.12502
lthumb 4.82452 43.4475
rfemur -1.36274 5.54798 24.1667
rtibia 32.3641
rfoot 23.5685 -12.0067
rtoes 5.83462
lfemur -45.5646 13.0192 -28.2487
ltibia 38.2325
lfoot 5.7443 -6.42755
ltoes -26.4608
608
root 8.21504 17.2483 -6.43655 865.218 -86.4397 -849.314
lowerback 19.6759 -0.318024 2.69024
upperback 6.73248 -0.45382 -1.81414
thorax -3.75576 -0.374509 -3.35177
lowerneck 6.47979 0.447721 2.71301
upperneck -19.4169 1.13434 2.5945
head -7.00053 -0.0361883 0.314755
rclavicle 7.95139e-016 -4.77083e-015
rhumerus -30.5593 -5.79336 -88.6784
rradius 26.059
rwrist 7.07657
rhand -22.0511 -9.73608
rfingers 7.12502
rthumb 4.3594 -39.6712
lclavicle 7.95139e-016 -4.77083e-015
lhumerus -35.7839 6.63761 79.9283
lradius 27.9603
lwrist 20.4565
lhand -21.8418 13.3502
lfingers 7.12502
lthumb 4.56156 43.281
rfemur -2.62225 5.89806 24.0868
rtibia 34.0796
rfoot 24.4466 -11.587
rtoes 4.82702
lfemur -45.5234 13.4399 -28.4951
ltibia 38.4427
lfoot 5.76775 -7.21203
ltoes -26.6247
609
root 8.05536 17.2891 -6.43668 862.801 -86.7066 -846.583
lowerback 19.6192 -0.388628 2.63003
upperback 6.73003 -0.55293 -1.78885
thorax -3.73678 -0.421944 -3.26792
lowerneck 6.45454 0.430269 2.71326
upperneck -19.4018 1.10367 2.56438
head -6.9909 -0.0476736 0.30735
rclavicle 9.54166e-015 3.49861e-014
rhumerus -30.29 -5.577 -88.8654
rradius 26.154
rwrist 6.93198
rhand -21.8756 -9.73216
rfingers 7.12502
rthumb 4.52893 -39.6637
lclavicle 9.54166e-015 3.49861e-014
lhumerus -35.4222 6.39011 80.2099
lradius 28.3719
lwrist 20.9105
lhand -22.0879 13.1412
lfingers 7.12502
lthumb 4.3239 43.077
rfemur -3.92059 6.2081 24.017
rtibia 35.783
rfoot 25.0275 -11.0309
rtoes 4.00603
lfemur -45.4678 13.8809 -28.7393
ltibia 38.5974
lfoot 5.98548 -8.01823
ltoes -26.7801
610
root 7.89833 17.3339 -6.4373 859.851 -86.9905 -843.331
lowerback 19.5593 -0.465481 2.56787
upperback 6.73549 -0.661078 -1.76543
thorax -3.70794 -0.473746 -3.18309
lowerneck 6.4319 0.412229 2.71376
upperneck -19.3829 1.07345 2.53979
head -6.98051 -0.0593044 0.301627
rclavicle -2.06736e-014 -5.40694e-014
rhumerus -30.0293 -5.40185 -89.0366
rradius 26.2679
rwrist 6.74449
rhand -21.7385 -9.70774
rfingers 7.12502
rthumb 4.66131 -39.6365
lclavicle -2.06736e-014 -5.40694e-014
lhumerus -35.0733 6.10443 80.5068
lradius 28.7817
lwrist 21.3374
lhand -22.2571 12.9222
lfingers 7.12502
lthumb 4.16048 42.8613
rfemur -5.26297 6.47154 23.9232
rtibia 37.4718
rfoot 25.2771 -10.354
rtoes 3.34084
lfemur -45.384 14.2842 -28.9766
ltibia 38.6873
lfoot 6.38114 -8.77697
ltoes -26.9111
611
root 7.7431 17.3819 -6.43761 856.189 -87.2757 -839.376
lowerback 19.5024 -0.546341 2.52343
upperback 6.7368 -0.770987 -1.74678
thorax -3.68501 -0.526304 -3.11331
lowerneck 6.41597 0.389348 2.71015
upperneck -19.3549 1.04003 2.53465
head -6.9686 -0.0735465 0.303065
rclavicle 7.95139e-016 3.10104e-014
rhumerus -29.8013 -5.26852 -89.1918
rradius 26.391
rwrist 6.51293
rhand -21.6626 -9.67983
rfingers 7.12502
rthumb 4.7346 -39.6069
lclavicle 7.95139e-016 3.10104e-014
lhumerus -34.7462 5.79068 80.8018
lradius 29.1656
lwrist 21.6864
lhand -22.3347 12.7088
lfingers 7.12502
lthumb 4.08554 42.6494
rfemur -6.64661 6.68811 23.8038
rtibia 39.1361
rfoot 25.1846 -9.55383
rtoes 2.70156
lfemur -45.2547 14.6018 -29.1742
ltibia 38.7076
lfoot 6.92899 -9.43185
ltoes -26.9928
612
root 7.58889 17.4325 -6.43682 851.832 -87.5425 -834.733
lowerback 19.4457 -0.626662 2.50635
upperback 6.72546 -0.874656 -1.73559
thorax -3.6753 -0.575584 -3.06865
lowerneck 6.41253 0.361336 2.70141
upperneck -19.3195 1.00403 2.55346
head -6.95668 -0.0904502 0.313233
rclavicle -3.97569e-016 4.77083e-015
rhumerus -29.6253 -5.1727 -89.3308
rradius 26.5225
rwrist 6.24907
rhand -21.6488 -9.66027
rfingers 7.12502
rthumb 4.74793 -39.5871
lclavicle -3.97569e-016 4.77083e-015
lhumerus -34.452 5.46221 81.083
lradius 29.5142
lwrist 21.9389
lhand -22.3009 12.5263
lfingers 7.12502
lthumb 4.11823 42.4663
rfemur -8.0698 6.8604 23.6524
rtibia 40.7617
rfoot 24.8019 -8.65297
rtoes 2.00388
lfemur -45.0749 14.8134 -29.3191
ltibia 38.6543
lfoot 7.58537 -9.95517
ltoes -27.0655
